# xmcd
#
# Track frame offsets: 
#        150
#        10660
#        20057
#        35217
#        53062
#        63120
#        78657
#        104290
#        123925
#
# Disc length: 2162 seconds
#
# Revision: 4
# Processed by: cddbd v1.5.2PL0 Copyright (c) Steve Scherf et al.
# Submitted via: ExactAudioCopy v0.99pb5
#
DISCID=6e087009
DTITLE=Willie Nelson - The Sound In Your Mind (1976) 
DYEAR=2013
DGENRE=Outlaw Country
TTITLE0=That Lucky Old Sun (Just Rolls Around Heaven All Day)
TTITLE1=If You've Got The Money I've Got The Time
TTITLE2=A Penny For Your Thoughts
TTITLE3=The Healing Hands Of Time
TTITLE4=Thanks Again
TTITLE5=I'd Have To Be Crazy
TTITLE6=Amazing Grace
TTITLE7=The Sound In Your Mind
TTITLE8=Medley - Funny How Time Slips Away, Crazy, Night Life
EXTD=
EXTT0=
EXTT1=
EXTT2=
EXTT3=
EXTT4=
EXTT5=
EXTT6=
EXTT7=
EXTT8=Funny How The Time Slips Away,Crazy, Night Life
PLAYORDER=
